<svg width="1904" height="186" viewBox="0 0 1904 186" fill="none" xmlns="http://www.w3.org/2000/svg">
<rect width="1900" height="186" transform="matrix(1 0 0 -1 0 186)" fill="#27AE60"/>
<mask id="mask0" mask-type="alpha" maskUnits="userSpaceOnUse" x="4" y="0" width="1900" height="186">
<rect width="1900" height="186" transform="matrix(1 0 0 -1 4 186)" fill="#27AE60"/>
</mask>
<g mask="url(#mask0)">
<rect x="2.73279" y="-13.8756" width="269.272" height="269.272" transform="matrix(0.830419 -0.55714 -0.55714 -0.830419 936.898 149.124)" stroke="#9DF5C0" stroke-width="20"/>
<rect x="2.73279" y="-13.8756" width="269.272" height="269.272" transform="matrix(0.830419 -0.55714 -0.55714 -0.830419 941.166 121.856)" stroke="#9DF5C0" stroke-opacity="0.2" stroke-width="20"/>
<rect x="2.73279" y="-13.8756" width="269.272" height="269.272" transform="matrix(0.830419 -0.55714 -0.55714 -0.830419 948.166 86.1244)" stroke="#9DF5C0" stroke-opacity="0.1" stroke-width="20"/>
<g opacity="0.5">
<rect x="2.73279" y="-13.8756" width="269.272" height="269.272" transform="matrix(0.830419 -0.55714 -0.55714 -0.830419 758.898 494.124)" stroke="#9DF5C0" stroke-width="20"/>
<rect x="2.73279" y="-13.8756" width="269.272" height="269.272" transform="matrix(0.830419 -0.55714 -0.55714 -0.830419 763.166 466.856)" stroke="#9DF5C0" stroke-opacity="0.2" stroke-width="20"/>
<rect x="2.73279" y="-13.8756" width="269.272" height="269.272" transform="matrix(0.830419 -0.55714 -0.55714 -0.830419 770.166 431.124)" stroke="#9DF5C0" stroke-opacity="0.1" stroke-width="20"/>
</g>
<g opacity="0.3">
<rect x="2.73279" y="-13.8756" width="288.345" height="288.345" transform="matrix(0.830419 -0.55714 -0.55714 -0.830419 435.524 286.124)" stroke="#9DF5C0" stroke-width="20"/>
<rect x="2.73279" y="-13.8756" width="288.345" height="288.345" transform="matrix(0.830419 -0.55714 -0.55714 -0.830419 440.073 257.058)" stroke="#9DF5C0" stroke-opacity="0.2" stroke-width="20"/>
<rect x="2.73279" y="-13.8756" width="288.345" height="288.345" transform="matrix(0.830419 -0.55714 -0.55714 -0.830419 447.535 218.97)" stroke="#9DF5C0" stroke-opacity="0.1" stroke-width="20"/>
</g>
</g>
</svg>
