<svg width="19" height="15" viewBox="0 0 19 15" fill="none" xmlns="http://www.w3.org/2000/svg">
<path d="M9.2481 3.89139L3.16692 8.97622V14.4642C3.16692 14.6063 3.22252 14.7426 3.32149 14.8431C3.42046 14.9435 3.55469 15 3.69466 15L7.3908 14.9903C7.53032 14.9896 7.66387 14.9328 7.76226 14.8324C7.86065 14.732 7.9159 14.5962 7.9159 14.4545V11.2496C7.9159 11.1075 7.97151 10.9712 8.07046 10.8707C8.16944 10.7703 8.30368 10.7138 8.44363 10.7138H10.5546C10.6945 10.7138 10.8288 10.7703 10.9278 10.8707C11.0267 10.9712 11.0823 11.1075 11.0823 11.2496V14.4522C11.0821 14.5227 11.0956 14.5925 11.122 14.6577C11.1485 14.7229 11.1873 14.7822 11.2363 14.8321C11.2853 14.882 11.3436 14.9216 11.4077 14.9487C11.4719 14.9757 11.5406 14.9896 11.6101 14.9896L15.3049 15C15.4448 15 15.5791 14.9435 15.6781 14.8431C15.777 14.7426 15.8326 14.6063 15.8326 14.4642V8.97254L9.75275 3.89139C9.68128 3.83289 9.59222 3.80102 9.50043 3.80102C9.40863 3.80102 9.31958 3.83289 9.2481 3.89139ZM18.8539 7.34747L16.0965 5.03996V0.401831C16.0965 0.295258 16.0548 0.193051 15.9805 0.117693C15.9063 0.0423355 15.8057 0 15.7007 0H13.8536C13.7486 0 13.6479 0.0423355 13.5737 0.117693C13.4995 0.193051 13.4578 0.295258 13.4578 0.401831V2.83324L10.5048 0.36667C10.2214 0.129918 9.86579 0.000473273 9.49878 0.000473273C9.13177 0.000473273 8.77617 0.129918 8.49278 0.36667L0.143644 7.34747C0.103566 7.38109 0.0704044 7.42241 0.0460626 7.46906C0.0217174 7.5157 0.00666368 7.56677 0.00176232 7.61931C-0.00313904 7.67188 0.00220761 7.72489 0.0174988 7.77535C0.0327867 7.82582 0.0577189 7.8727 0.0908707 7.91338L0.931952 8.95145C0.965012 8.99226 1.00568 9.02605 1.05162 9.0509C1.09756 9.07571 1.14787 9.09111 1.19968 9.09617C1.25148 9.10126 1.30377 9.0959 1.35354 9.08043C1.4033 9.06496 1.44957 9.03968 1.4897 9.00603L9.2481 2.51847C9.31958 2.45998 9.40863 2.42808 9.50043 2.42808C9.59222 2.42808 9.68128 2.45998 9.75275 2.51847L17.5115 9.00603C17.5516 9.03968 17.5977 9.065 17.6474 9.0805C17.6971 9.09604 17.7494 9.10146 17.8011 9.09651C17.8529 9.09152 17.9032 9.07625 17.9491 9.05153C17.9951 9.02679 18.0358 8.99314 18.0689 8.95245L18.91 7.91439C18.9431 7.87347 18.9679 7.82635 18.983 7.77566C18.9981 7.72499 19.0032 7.67178 18.998 7.61911C18.9928 7.5664 18.9774 7.5153 18.9527 7.46869C18.9279 7.42208 18.8944 7.38089 18.8539 7.34747Z" fill="#9DF5C0"/>
</svg>
