<svg width="6" height="15" viewBox="0 0 6 15" fill="none" xmlns="http://www.w3.org/2000/svg">
<path d="M0.625 12.4286H1.25V8.19642H0.625C0.279813 8.19642 0 7.93409 0 7.61048V6.21094C0 5.88732 0.279813 5.625 0.625 5.625H4.125C4.47019 5.625 4.75 5.88732 4.75 6.21094V12.4286H5.375C5.72019 12.4286 6 12.6909 6 13.0145V14.4141C6 14.7377 5.72019 15 5.375 15H0.625C0.279813 15 0 14.7377 0 14.4141V13.0145C0 12.6909 0.279813 12.4286 0.625 12.4286ZM3 0C1.75734 0 0.75 0.944385 0.75 2.10938C0.75 3.27437 1.75734 4.21875 3 4.21875C4.24266 4.21875 5.25 3.27437 5.25 2.10938C5.25 0.944385 4.24263 0 3 0Z" fill="#9DF5C0"/>
</svg>
