<svg width="158" height="56" viewBox="0 0 158 56" fill="none" xmlns="http://www.w3.org/2000/svg">
<path d="M23.4225 27.3125C23.4225 27.3125 21.4618 42.0872 28.7661 47.7425C36.0708 53.3979 46.425 55.6252 54.3674 55.7528C54.3674 55.7528 51.0279 50.7193 49.3935 47.0211C47.7582 43.3212 44.9783 35.8692 40.8236 33.2073C36.7887 30.6247 31.0623 28.7535 23.4225 27.3125Z" fill="white"/>
<path d="M0.962472 0C0.962472 0 -2.17876 11.284 2.88852 16.4828C7.95624 21.6812 15.3666 24.4129 21.4934 25.4092C21.7153 23.727 21.739 20.2691 20.1954 16.1408C18.8249 12.4851 16.1626 8.95491 13.3559 6.27764C10.5497 3.60301 6.75115 1.95762 0.962472 0Z" fill="white"/>
<path d="M23.412 25.8421C23.412 25.8421 39.4673 26.9937 46.5014 24.0805C52.9211 21.4199 59.1966 12.1181 56.0461 1.46602C56.0461 1.46602 51.5753 3.16974 47.2609 3.89332C43.3115 4.55332 30.3098 6.49033 26.3717 11.3883C22.4345 16.2868 23.0112 22.4061 23.412 25.8421Z" fill="white"/>
<path d="M3.97919 41.3513C3.97919 41.3513 4.31905 33.109 6.07671 30.7497C7.99486 28.1742 13.2731 24.9474 21.6031 26.8985C21.6031 26.8985 21.7092 38.717 17.1467 41.1185C12.5819 43.519 3.97919 41.3513 3.97919 41.3513Z" fill="white"/>
<path d="M63.1893 33.6971C63.0451 33.9137 62.9008 34.1308 62.7561 34.4198C61.6724 36.37 59.8666 39.7656 56.471 40.9935H56.3986C55.893 41.2101 55.315 41.2825 54.737 41.2825C53.7981 41.2825 52.9311 40.9935 52.2808 40.4155C51.1248 39.4761 50.6191 37.9592 50.8358 36.1534C50.9801 34.925 51.7028 33.191 52.3527 31.6741L56.6148 21.4883C56.7595 20.8379 57.4094 20.3323 58.0598 20.3323C58.9268 20.3323 59.649 21.0546 59.649 21.9215C59.649 22.2105 59.5767 22.4272 59.4324 22.7885L58.0598 25.8947L55.0979 32.9744L55.3869 32.324C54.8089 33.6243 54.0862 35.6473 53.9419 36.5138C53.87 37.2365 54.0143 37.7417 54.2309 37.9588C54.5199 38.1031 54.8813 38.1754 55.3869 38.0312C57.6261 37.1642 59.0711 34.5637 59.938 32.902C60.1547 32.613 60.299 32.324 60.4437 32.1074C60.8774 31.3128 61.8163 31.0962 62.6109 31.5299C63.3336 31.9636 63.6226 32.9025 63.1893 33.6971Z" fill="white"/>
<path d="M78.2149 14.6975C77.9983 15.6369 77.1313 16.2868 75.5421 16.2868H74.0971C72.0741 16.2868 71.4966 16.5758 71.0629 17.0091C70.5572 17.3704 69.9069 18.0927 69.0399 20.0433L64.1274 32.0355C63.6218 33.3358 62.7548 35.2864 62.6105 36.2253C62.5382 36.8756 62.7552 37.3812 62.8995 37.5979C63.1161 37.8145 63.5499 37.8145 63.9831 37.6702C66.2951 36.8033 67.6677 34.2747 68.6066 32.5411L69.0403 31.7465C69.474 30.9519 70.4853 30.7352 71.2799 31.169C72.0746 31.6022 72.2912 32.5416 71.8575 33.3362L71.4242 34.0589C70.3406 36.0819 68.6066 39.4047 65.0672 40.633C64.5616 40.8496 63.9112 40.9216 63.4056 40.9216C62.5386 40.9216 61.5997 40.633 60.9493 40.0546C59.7934 39.1157 59.2882 37.5983 59.5044 35.7924C59.721 34.5645 60.3714 32.8306 60.9493 31.3137L69.3293 11.2305L71.0633 7.32925C71.2799 6.46226 72.0746 5.81236 72.9416 5.81236C73.8805 5.81236 74.5308 6.53463 74.3142 7.47397L73.1582 10.3635C72.0746 12.964 74.7474 13.1087 74.7474 13.1087H76.6257C77.4927 13.1083 78.5759 13.6143 78.2149 14.6975Z" fill="white"/>
<path d="M91.7964 33.6971C91.6517 33.8418 91.5798 34.0585 91.435 34.3475C90.1348 36.5866 88.0394 40.4155 84.7886 40.9935C84.7886 41.0658 84.7886 41.0658 84.7886 41.0658C84.5 41.0658 84.211 41.1382 83.9216 41.1382C82.838 41.1382 81.8986 40.7773 81.1764 40.1269C80.237 39.4766 79.9485 39.4766 79.4424 39.4766C79.081 39.4766 78.7921 39.4766 77.7808 39.9822C77.5641 40.0546 77.4194 40.1988 77.2028 40.2712C76.1915 40.7768 75.1079 41.0658 74.0966 41.0658C73.5191 41.0658 73.013 40.9935 72.435 40.8492C69.8345 40.1269 67.523 37.454 68.8956 31.9636C69.5455 29.5073 70.6296 27.1234 72.0741 25.2452C73.4467 23.5112 75.036 22.139 76.77 21.2721C78.8648 20.2608 80.8874 20.1161 82.4771 20.8384C83.2717 21.1997 83.633 22.1386 83.2717 22.9332C82.9108 23.7279 81.9714 24.0892 81.1768 23.7279C80.4541 23.4389 79.3709 23.5832 78.2149 24.1611C75.9753 25.2448 73.1582 28.0624 72.0022 32.7578C71.6408 34.058 71.1352 37.1646 73.2301 37.7422C74.3861 38.0312 75.6863 37.7422 76.9866 36.7309C78.8648 35.214 80.4541 32.2521 81.1768 30.3015C81.1768 30.1568 81.2492 30.0849 81.2492 29.9406C81.8267 28.0619 82.3328 27.5563 82.3328 27.5563C82.7665 27.1226 83.4888 26.9059 84.1387 27.1226C84.8609 27.4839 85.2947 28.2786 85.0776 29.1455C84.9329 29.5069 84.7162 30.0844 84.4277 30.6624C83.922 31.9627 83.127 34.058 82.9108 35.7916C82.7661 36.8752 82.9831 37.5255 83.2717 37.7417C83.4883 37.9584 83.7773 37.9584 84.211 37.8864C85.945 37.5255 87.7505 34.347 88.6179 32.7573C88.7626 32.5407 88.9069 32.2517 89.0516 32.0346C89.4849 31.3124 90.4242 31.0233 91.2188 31.4571C91.9407 31.9636 92.2297 32.9025 91.7964 33.6971Z" fill="white"/>
<path d="M78.7487 13.0122C78.7487 13.0122 84.1251 12.3597 86.2608 10.945C88.2097 9.65306 89.684 6.17766 87.9579 2.86233C87.9579 2.86233 86.591 3.71264 85.2127 4.22923C83.951 4.7011 79.7814 6.17722 78.796 8.04845C77.8111 9.91924 78.3952 11.9032 78.7487 13.0122Z" fill="white"/>
<path d="M60.9752 17.6164C62.147 17.6164 63.0968 16.6665 63.0968 15.4948C63.0968 14.323 62.147 13.3731 60.9752 13.3731C59.8035 13.3731 58.8536 14.323 58.8536 15.4948C58.8536 16.6665 59.8035 17.6164 60.9752 17.6164Z" fill="white"/>
<path d="M98.508 40.388C100.884 40.388 102.072 38.636 102.072 35.132C102.072 34.268 101.94 33.248 101.676 32.072C101.436 30.896 101.292 30.164 101.244 29.876C99.78 31.388 98.136 32.3 96.312 32.612V31.748C98.04 31.364 99.66 30.38 101.172 28.796V28.652C101.172 28.076 101.256 27.512 101.424 26.96C101.592 26.408 101.76 26 101.928 25.736L102.18 25.34H103.044C103.044 26.396 103.212 27.368 103.548 28.256C103.884 29.12 104.256 29.828 104.664 30.38C105.072 30.908 105.444 31.616 105.78 32.504C106.116 33.368 106.284 34.328 106.284 35.384C106.284 37.088 105.636 38.504 104.34 39.632C103.068 40.76 101.532 41.324 99.732 41.324C97.932 41.324 96.564 40.916 95.628 40.1C94.716 39.284 94.26 38.348 94.26 37.292C94.26 36.212 94.524 35.444 95.052 34.988C95.58 34.508 96.204 34.268 96.924 34.268C97.644 34.268 98.232 34.508 98.688 34.988C99.168 35.444 99.408 36.044 99.408 36.788C99.408 37.508 99.18 38.12 98.724 38.624C98.268 39.128 97.68 39.38 96.96 39.38C96.648 39.38 96.324 39.332 95.988 39.236C96.516 40.004 97.356 40.388 98.508 40.388ZM121.878 40.604C122.454 40.604 123.054 40.268 123.678 39.596L124.218 40.028C124.05 40.364 123.678 40.664 123.102 40.928C122.526 41.192 121.89 41.324 121.194 41.324C119.01 41.324 117.918 40.34 117.918 38.372C117.918 37.532 118.134 36.032 118.566 33.872C118.998 31.712 119.214 30.296 119.214 29.624C119.214 28.592 118.722 28.076 117.738 28.076C116.922 28.076 116.13 28.628 115.362 29.732C114.618 30.836 114.006 32.336 113.526 34.232L112.338 41H108.018L112.014 18.392C111.294 18.464 110.694 18.8 110.214 19.4L109.674 18.968C110.394 18.104 111.294 17.672 112.374 17.672C113.478 17.672 114.33 17.948 114.93 18.5C115.53 19.052 115.83 19.832 115.83 20.84C115.83 21.032 115.806 21.344 115.758 21.776L114.246 30.308C115.23 28.1 116.754 26.996 118.818 26.996C120.234 26.996 121.338 27.404 122.13 28.22C122.922 29.012 123.318 30.116 123.318 31.532C123.318 32.276 123.09 33.716 122.634 35.852C122.178 37.964 121.926 39.548 121.878 40.604ZM131.573 41.324C129.725 41.324 128.321 40.868 127.361 39.956C126.401 39.02 125.921 37.856 125.921 36.464C125.921 35.048 126.041 33.848 126.281 32.864C126.545 31.856 126.965 30.896 127.541 29.984C128.117 29.048 128.981 28.316 130.133 27.788C131.309 27.26 132.761 26.996 134.489 26.996C136.241 26.996 137.597 27.464 138.557 28.4C139.541 29.312 140.033 30.572 140.033 32.18C140.033 34.916 139.301 37.124 137.837 38.804C136.397 40.484 134.309 41.324 131.573 41.324ZM129.989 37.616C129.989 39.536 130.541 40.496 131.645 40.496C132.773 40.496 133.769 39.536 134.633 37.616C135.521 35.672 135.965 33.368 135.965 30.704C135.965 28.688 135.413 27.68 134.309 27.68C133.229 27.68 132.233 28.604 131.321 30.452C130.433 32.276 129.989 34.664 129.989 37.616ZM149.012 41.288C147.908 41.288 147.032 41.036 146.384 40.532L145.304 46.328H141.02L144.404 27.464C143.684 27.536 143.084 27.872 142.604 28.472L142.063 28.04C142.784 27.176 143.672 26.744 144.728 26.744C145.808 26.744 146.648 27.008 147.248 27.536C147.848 28.04 148.172 28.76 148.22 29.696C149.276 27.896 150.62 26.996 152.252 26.996C153.884 26.996 155.132 27.464 155.996 28.4C156.86 29.312 157.292 30.572 157.292 32.18C157.292 35.012 156.524 37.244 154.988 38.876C153.452 40.484 151.46 41.288 149.012 41.288ZM146.636 39.092C147.044 40.004 147.812 40.46 148.939 40.46C150.092 40.46 151.088 39.5 151.928 37.58C152.792 35.66 153.224 33.368 153.224 30.704C153.224 29.6 153.104 28.844 152.864 28.436C152.648 28.028 152.24 27.824 151.64 27.824C151.04 27.824 150.416 28.184 149.768 28.904C149.144 29.624 148.688 30.308 148.4 30.956C148.112 31.58 147.968 31.94 147.968 32.036H147.932L146.636 39.092Z" fill="#9DF5C0"/>
</svg>
