<svg width="11" height="15" viewBox="0 0 11 15" fill="none" xmlns="http://www.w3.org/2000/svg">
<path d="M5.51472 0C3.01971 0 1.40368 0.958096 0.134935 2.66678C-0.0952201 2.97674 -0.0242636 3.40172 0.296791 3.62988L1.64521 4.58815C1.96946 4.81857 2.4308 4.7647 2.68465 4.46663C3.46764 3.54727 4.04845 3.01793 5.2715 3.01793C6.23313 3.01793 7.42257 3.59798 7.42257 4.47196C7.42257 5.13267 6.84064 5.47198 5.89113 5.97091C4.78387 6.55274 3.3186 7.27685 3.3186 9.08824V9.375C3.3186 9.76333 3.65447 10.0781 4.0688 10.0781H6.33413C6.74846 10.0781 7.08433 9.76333 7.08433 9.375V9.20587C7.08433 7.9502 11 7.89791 11 4.5C11 1.94109 8.16796 0 5.51472 0ZM5.20148 10.9412C4.00753 10.9412 3.03618 11.8516 3.03618 12.9706C3.03618 14.0896 4.00753 15 5.20148 15C6.39542 15 7.36678 14.0896 7.36678 12.9706C7.36678 11.8516 6.39542 10.9412 5.20148 10.9412Z" fill="#9DF5C0"/>
</svg>
